<svg version="1" xmlns="http://www.w3.org/2000/svg" width="164" height="164" viewBox="0 0 123.000000 123.000000"><path d="M21.6 20.6c-.9.8-1.6 2-1.6 2.5s-.9.9-1.9.9c-1.1 0-2.2.4-2.6 1-.3.5-2 .7-3.8.5-4-.5-6.7.9-5 2.6.8.8 2.4.8 5.7.1 3.6-.8 4.6-.7 4.6.4 0 .7-.4 1.6-1 1.9-.5.3-1 4.4-1 9.1 0 9.7 1.3 11.9 7.7 12.9 6.9 1.1 6.8.7 7.1 16.8.2 14 .2 14.6-1.9 15.7-3.4 1.8-6.9.4-7.6-3.1-1.5-7.4-12.9-9.5-19-3.3C.5 79.4 0 82.7 0 88v8.1l2.8-.3c2.7-.3 2.7-.4 2.7-7.6 0-6 .3-7.6 1.8-8.7 3.3-2.4 9.4.5 8.1 3.9-.7 1.8 2.9 4.7 7.2 5.6 4.6 1.1 10.7-1.1 12-4.3.8-1.8 1-15.1.5-28.9-.1-3.3-3-5.4-8.5-6.2-2.2-.4-4.5-1.1-5.1-1.6-.6-.5-1.1-4-1-8.6.1-8.2 1.5-10.7 5.5-9.7 3 .8 4.4 2.9 2.4 3.7-3 1.2.2 3.3 4.7 3 4.8-.3 6-1.1 3.8-2.7-.8-.7-1.8-2-2.2-3-1.1-3-7.5-5.1-12.4-4-2.3.6-4 .6-3.7.2.3-.5 1-.9 1.5-.9s1.5-.5 2.2-1c.7-.6 2.1-1.7 3.1-2.4 2-1.4 1.5-3.6-.9-3.6-.7 0-2.1.7-2.9 1.6zM43.3 26.8l-3.3.3v31c0 17 .3 30.9.8 31 .4 0 1.5.2 2.5.4 2 .4 1.9 1.5 2.1-19.5l.1-16.5 5.4-.7c8.1-.9 9.4-2.8 9.4-12.9 0-7.7-.2-8.4-2.7-10.6-1.5-1.2-3.9-2.3-5.4-2.4-1.5 0-3.4-.1-4.2-.3-.8-.1-3 0-4.7.2zm9.3 4.2c2.2.9 2.4 1.4 2.4 8.2 0 8-.6 9.7-3.5 9.9-6.2.6-6.2.7-5.9-9.4.1-5 .2-9.2.3-9.2 1.4-.5 4.8-.2 6.7.5zM76.6 26.9c-.2.3-.3 14.4-.3 31.3 0 28.3.1 30.7 1.7 31.1 1 .2 2.2.2 2.7-.2.6-.4 1-11.8 1.1-29 0-30 0-30.1 4.7-30.1 4.6 0 4.6.1 4.8 30.6l.2 28.8h5l.1-28.4c0-16.2-.4-29.4-.9-30.7-.5-1.2-1.7-2.5-2.6-2.9-2.1-.9-16-1.4-16.5-.5zM108.8 27c-5.9 1.8-5.8 1.3-5.8 32.9 0 16 .3 29.1.8 29.2.4 0 1.5.2 2.5.4 1.9.4 1.8 1.2 1.8-22.8V53h9.6v17.3c0 9.6.3 17.9.7 18.5.3.6 1.5 1 2.6.9 1.9-.1 2-.9 2-29.5 0-32.3.2-31.4-6.2-33.3-3.8-1-4.3-1-8 .1zm8.1 4.8c.5 1 .9 5.3.8 9.7l-.2 8h-9l-.2-8.5c-.1-4.7.3-9.1.9-9.7 1.6-1.9 6.6-1.6 7.7.5zM65.2 58.2c.3 28.7.4 31.1 2 31.4 1 .1 2.1-.3 2.5-.9.4-.7.7-14.8.8-31.5V27H65l.2 31.2zM93.2 99.1v4l5.2-.3c5-.3 7.6-1.6 7.6-3.7 0-.6.7-1.1 1.6-1.1 1.4 0 1.5.2.3 1.7-.8.9-.9 1.4-.3 1 .7-.4 1.7 0 2.4.8 2.1 2.6 3.1 1.6 1.3-1.3-3.3-5.1-4.7-5.3-6.9-1-1.5 3-1.7 3.1-3 1.3-.7-1-1.2-2.1-.9-2.4.2-.4-.5-1.2-1.6-1.9S97 95.4 97 96c0 .5.5 1 1.2 1 .9 0 .9.3.1 1.1-.7.7-2 .9-3 .5-1.3-.5-1.4-.9-.4-1.5 1-.7 1-.9-.3-1.4-1.2-.5-1.5.2-1.4 3.4zm6.8 2c0 1.2-4.7 1.2-5.5 0-.3-.5.5-1.1 1.7-1.3 2.7-.5 3.8-.1 3.8 1.3zM115.9 95.7c-1.2.3-1.7 1.5-1.7 3.9 0 1.8.4 3.4 1 3.4.5 0 .6-.5.3-1-1.1-1.8 2.5-2.3 4.4-.6 2.1 1.9 3.8 2.1 2.3.3-.6-.7-.9-2.3-.5-3.5.3-1.3.1-2.2-.6-2.2s-.9.5-.6 1c.9 1.4-2.1 2.4-4.2 1.5-1.6-.7-1.4-.9.7-1.4 2.7-.7 1.6-2-1.1-1.4z"/></svg>